<svg id="visual" viewBox="0 0 960 540" width="960" height="540" xmlns="http://www.w3.org/2000/svg" xmlns:xlink="http://www.w3.org/1999/xlink" version="1.1"><rect x="0" y="0" width="960" height="540" fill="#1c1c1c"></rect><path d="M0 464L32 466.7C64 469.3 128 474.7 192 469.5C256 464.3 320 448.7 384 431.7C448 414.7 512 396.3 576 394.2C640 392 704 406 768 407.2C832 408.3 896 396.7 928 390.8L960 385L960 541L928 541C896 541 832 541 768 541C704 541 640 541 576 541C512 541 448 541 384 541C320 541 256 541 192 541C128 541 64 541 32 541L0 541Z" fill="#FFFFFF" stroke-linecap="round" stroke-linejoin="miter"></path></svg>